<svg xmlns="http://www.w3.org/2000/svg" width="52.312" height="43.62" viewBox="0 0 52.312 43.62">
  <defs>
    <style>
      .cls-1 {
        fill: #3dd2ae;
        fill-rule: evenodd;
      }
    </style>
  </defs>
  <path id="_3.svg" data-name="3.svg" class="cls-1" d="M845.534,2602.16c-1.43-1.41-3.886-.4-3.886-0.4-3.575.7-23.411,20.24-23.411,20.24l-2.021,1.98-5.054,6.94-2.022,1.99s-5.056-.99-7.078,1.98c-2.022,5.95-3.032,7.94-8.087,7.94,17.187,6.94,20.219-4.96,20.219-4.96l2.022-1.99,7.076-4.96,2.023-1.98s19.906-19.46,20.622-22.97C845.937,2605.97,846.963,2603.56,845.534,2602.16Zm-41.954,40.86a17.674,17.674,0,0,1-3.206-.32c1.563-1.53,2.473-3.86,3.5-6.88,0.806-.94,2.425-1.09,3.353-1.09a9.447,9.447,0,0,1,1.52.12,1.665,1.665,0,0,0,.384.04,2.045,2.045,0,0,0,1.276-.45l2.225,2.19a1.9,1.9,0,0,0-.4.76C812.173,2637.6,810.618,2643.02,803.58,2643.02Zm40.483-37.8a2.243,2.243,0,0,0-.109.36c-0.666,2.1-10.729,12.82-20.066,21.95l-1.907,1.87-6.94,4.87a1.532,1.532,0,0,0-.254.21l-0.657.65-2.192-2.16,0.653-.64a2.029,2.029,0,0,0,.215-0.25l4.958-6.81,1.9-1.87c9.306-9.17,20.235-19.04,22.418-19.7a2.046,2.046,0,0,0,.343-0.11,3.515,3.515,0,0,1,1.07-.19,0.861,0.861,0,0,1,.605.16A2.018,2.018,0,0,1,844.063,2605.22Z" transform="translate(-793.969 -2601.41)"/>
</svg>
