<svg xmlns="http://www.w3.org/2000/svg" width="43" height="31" viewBox="0 0 43 31">
  <defs>
    <style>
      .cls-1 {
        fill: #835fa8;
        fill-rule: evenodd;
      }
    </style>
  </defs>
  <path id="_5.svg" data-name="5.svg" class="cls-1" d="M250.535,3170.24a11.593,11.593,0,0,0-11.124-14.59,11.382,11.382,0,0,0-4.6.97,9.2,9.2,0,0,0-17.671,3.68,9.09,9.09,0,0,0,.1,1.01A10.86,10.86,0,0,0,221.75,3182h26.107A6.2,6.2,0,0,0,250.535,3170.24Zm-2.678,10.21H221.75a9.306,9.306,0,0,1-3.861-17.73l1-.47-0.119-1.11c-0.013-.11-0.028-0.23-0.044-0.34a3.844,3.844,0,0,1-.048-0.5,7.665,7.665,0,0,1,14.725-3.07l0.612,1.43,1.412-.62a9.783,9.783,0,0,1,3.983-.84,10.042,10.042,0,0,1,9.982,10.08,10.236,10.236,0,0,1-.343,2.57l-0.321,1.23,1.133,0.56A4.641,4.641,0,0,1,247.857,3180.45Zm-14.589-7.36v-11.24h-1.536v11.24l-4.223-4.26-0.768,1.16,5.759,5.81,5.759-5.81-0.768-1.16Z" transform="translate(-211 -3151)"/>
</svg>
