<svg xmlns="http://www.w3.org/2000/svg" width="63" height="79" viewBox="0 0 63 79">
  <defs>
    <style>
      .cls-1 {
        fill: #835fa8;
        fill-rule: evenodd;
      }
    </style>
  </defs>
  <path id="logo.svg" class="cls-1" d="M125.809,118.082l-4.825-4.478L134.9,98.774A27.912,27.912,0,0,0,141.4,80.705a24.047,24.047,0,0,0-7.369-17.819,24.654,24.654,0,0,0-35.074.009,24.04,24.04,0,0,0-7.36,17.81A28.018,28.018,0,0,0,98.15,98.872l2.062,2.562-5.152,4.1L93,102.973a34.776,34.776,0,0,1-8-22.268,30.7,30.7,0,0,1,9.292-22.451A31.028,31.028,0,0,1,116.433,49h0.084a31.192,31.192,0,0,1,22.174,9.237A30.708,30.708,0,0,1,148,80.705a34.694,34.694,0,0,1-8.036,22.274l-0.159.183Zm-5.113-5.293-6.037-6.929,4.986-4.3,6.037,6.93Zm-14-17.922a3.3,3.3,0,0,1-2.393-1.023,10.739,10.739,0,0,1-2.925-8.631,11.113,11.113,0,0,1,4.027-8,11.276,11.276,0,0,1,8.425-2.656,11.74,11.74,0,0,1,7.942,3.945l9.062,10.425a3.269,3.269,0,0,1-.337,4.629,3.31,3.31,0,0,1-4.653-.336l-9.074-10.437-0.023-.027a3.709,3.709,0,0,0-1.086-.9c-0.085-.046-0.169-0.1-0.251-0.149a3.856,3.856,0,0,0-1.978-.6c-0.053,0-.106-0.006-0.158-0.011a4.613,4.613,0,0,0-3.609,1.129,4.528,4.528,0,0,0-1.7,3.436q-0.006.116-.021,0.23a3.871,3.871,0,0,0,.169,1.8q0.02,0.055.036,0.11a3.9,3.9,0,0,0,.943,1.524A3.282,3.282,0,0,1,106.693,94.867Zm18.63,23.207-8.949-10.238,4.979-4.307,8.949,10.238ZM116.559,128a3.3,3.3,0,0,1-2.482-1.118L93.094,103.087a3.27,3.27,0,0,1,.3-4.632,3.312,3.312,0,0,1,4.656.3l20.983,23.795A3.284,3.284,0,0,1,116.559,128Zm2.755-18.528a3.3,3.3,0,0,1-2.5-1.142l-12.62-14.606a3.27,3.27,0,0,1,.351-4.628,3.312,3.312,0,0,1,4.653.349l12.62,14.605A3.283,3.283,0,0,1,119.314,109.472Z" transform="translate(-85 -49)"/>
</svg>
