<svg xmlns="http://www.w3.org/2000/svg" width="13" height="13" viewBox="0 0 13 13">
  <defs>
    <style>
      .cls-1 {
        fill: #b2b2b2;
        fill-rule: evenodd;
      }
    </style>
  </defs>
  <path id="search.svg" class="cls-1" d="M1327.17,85.168a5.489,5.489,0,0,0,1.76,1.172,5.486,5.486,0,0,0,5.25-.536l2.68,2.672a0.928,0.928,0,0,0,.7.3,0.965,0.965,0,0,0,.71-0.3,0.946,0.946,0,0,0,.29-0.7,0.96,0.96,0,0,0-.28-0.7l-2.68-2.68a5.534,5.534,0,0,0,.53-5.254,5.547,5.547,0,0,0-1.17-1.758,5.477,5.477,0,0,0-1.76-1.172,5.47,5.47,0,0,0-4.27,0,5.477,5.477,0,0,0-1.76,1.172,5.547,5.547,0,0,0-1.17,1.758,5.408,5.408,0,0,0,0,4.273A5.549,5.549,0,0,0,1327.17,85.168Zm3.89-7.394a3.511,3.511,0,1,1-2.47,1.027A3.386,3.386,0,0,1,1331.06,77.774Z" transform="translate(-1325.56 -75.781)"/>
</svg>
